<svg width="2637" height="1280" viewBox="0 0 2637 1280" fill="none" xmlns="http://www.w3.org/2000/svg">
<g clip-path="url(#clip0_12_4126)">
<path opacity="0.4" fill-rule="evenodd" clip-rule="evenodd" d="M2411.04 1259.74H0V116.78M0 113.01C0 113.01 561.121 -156.22 1409 136.43C1549.83 192.34 2172.02 302.92 2482.62 79.1202C2793.22 -144.68 2539.13 445.6 2539.13 445.6C2539.13 445.6 2264.57 546 2236.49 558.55C2208.41 571.1 1437.92 581.25 1349.93 573.61C1261.94 565.97 417.123 367.25 384.26 365.28C351.397 363.31 194.08 333.94 140.644 306.29C87.208 278.64 0 113.01 0 113.01ZM234.826 253.58H2409.79V1260.99H234.826V253.58ZM2411.04 1259.74H0V116.78M234.826 253.58H2409.79V1260.99H234.826V253.58Z" fill="#E9F3F7"/>
<path opacity="0.8" fill-rule="evenodd" clip-rule="evenodd" d="M2224 1278.62H304V173.616M304 170.616C304 170.616 740.233 10.4356 1431 190.616C1479 202.416 2033.66 321.936 2281 143.616C2282 145.296 2282 478.616 2282 478.616L304 477.616V170.616ZM304 282.616H2223V1279.62H304V282.616ZM2224 1278.62H304V173.616M304 282.616H2223V1279.62H304V282.616Z" fill="#E3F0F5"/>
</g>
<defs>
<clipPath id="clip0_12_4126">
<rect width="2637.01" height="1279.61" fill="white" transform="translate(0 0.000976562)"/>
</clipPath>
</defs>
</svg>
