<svg width="2293" height="2106" viewBox="0 0 2293 2106" fill="none" xmlns="http://www.w3.org/2000/svg">
<path opacity="0.5" d="M1116.5 1917C1564.13 1917 1927 1554.13 1927 1106.5C1927 658.873 1564.13 296 1116.5 296C668.873 296 306 658.873 306 1106.5C306 1554.13 668.873 1917 1116.5 1917Z" stroke="#EEEFF0" stroke-width="2"/>
<path opacity="0.5" d="M1146.5 2105C1779.14 2105 2292 1634 2292 1053C2292 471.996 1779.14 1 1146.5 1C513.858 1 1 471.996 1 1053C1 1634 513.858 2105 1146.5 2105Z" stroke="#EEEFF0" stroke-width="2"/>
<path opacity="0.5" d="M1115.5 1667C1425.61 1667 1677 1415.61 1677 1105.5C1677 795.392 1425.61 544 1115.5 544C805.392 544 554 795.392 554 1105.5C554 1415.61 805.392 1667 1115.5 1667Z" stroke="#EEEFF0" stroke-width="2"/>
<path opacity="0.5" d="M1116 1532C1351.27 1532 1542 1341.27 1542 1106C1542 870.727 1351.27 680 1116 680C880.727 680 690 870.727 690 1106C690 1341.27 880.727 1532 1116 1532Z" stroke="#EEEFF0" stroke-width="2"/>
<path opacity="0.5" d="M1115.5 1401C1278.7 1401 1411 1268.7 1411 1105.5C1411 942.3 1278.7 810 1115.5 810C952.3 810 820 942.3 820 1105.5C820 1268.7 952.3 1401 1115.5 1401Z" stroke="#EEEFF0" stroke-width="2"/>
<path opacity="0.5" d="M1116 1276C1209.89 1276 1286 1199.89 1286 1106C1286 1012.11 1209.89 936 1116 936C1022.11 936 946 1012.11 946 1106C946 1199.89 1022.11 1276 1116 1276Z" stroke="#EEEFF0" stroke-width="2"/>
</svg>
