<svg width="50" height="53" viewBox="0 0 50 53" fill="none" xmlns="http://www.w3.org/2000/svg">
<path opacity="0.5" d="M25.0923 51.6657C38.4585 51.6657 49.294 40.339 49.294 26.3667C49.294 12.3944 38.4585 1.06763 25.0923 1.06763C11.7261 1.06763 0.890625 12.3944 0.890625 26.3667C0.890625 40.339 11.7261 51.6657 25.0923 51.6657Z" stroke="#806BB6"/>
<path d="M12.6464 25.6464C12.4512 25.8417 12.4512 26.1583 12.6464 26.3536L15.8284 29.5355C16.0237 29.7308 16.3403 29.7308 16.5355 29.5355C16.7308 29.3403 16.7308 29.0237 16.5355 28.8284L13.7071 26L16.5355 23.1716C16.7308 22.9763 16.7308 22.6597 16.5355 22.4645C16.3403 22.2692 16.0237 22.2692 15.8284 22.4645L12.6464 25.6464ZM38 25.5L13 25.5V26.5L38 26.5V25.5Z" fill="#B3AED6"/>
</svg>
