<svg width="34" height="34" viewBox="0 0 34 34" fill="none" xmlns="http://www.w3.org/2000/svg">
<path d="M17 33C25.8366 33 33 25.8366 33 17C33 8.16344 25.8366 1 17 1C8.16344 1 1 8.16344 1 17C1 25.8366 8.16344 33 17 33Z" stroke="#CCCCCC"/>
<path fill-rule="evenodd" clip-rule="evenodd" d="M13.661 23.7998C20.4533 23.7998 24.1685 18.8747 24.1685 14.6041C24.1685 14.4639 24.1685 14.3248 24.1577 14.1862C24.8804 13.7293 25.5041 13.1621 26 12.5131C25.3268 12.7746 24.6113 12.9461 23.8796 13.0217C24.65 12.6177 25.2269 11.9829 25.5032 11.2338C24.7778 11.6103 23.9849 11.876 23.1578 12.0186C21.7592 10.7174 19.4201 10.6544 17.9324 11.8784C16.9739 12.6676 16.5662 13.8443 16.8641 14.9666C13.895 14.8359 11.1284 13.6088 9.2528 11.5901C8.2727 13.0669 8.774 14.9554 10.3967 15.9037C9.809 15.8888 9.2339 15.7503 8.72 15.4998V15.5409C8.7209 17.0791 9.9602 18.4036 11.6828 18.7084C11.1392 18.8384 10.5686 18.8572 10.016 18.7635C10.4993 20.0804 11.8862 20.9824 13.4657 21.0084C12.158 21.9079 10.5425 22.3963 8.8793 22.3948C8.5859 22.394 8.2925 22.379 8 22.3483C9.6893 23.2966 11.654 23.7999 13.661 23.7975" fill="#CCCCCC"/>
</svg>
