<svg width="18" height="13" viewBox="0 0 18 13" fill="none" xmlns="http://www.w3.org/2000/svg">
<path fill-rule="evenodd" clip-rule="evenodd" d="M5.661 12.7998C12.4533 12.7998 16.1685 7.87469 16.1685 3.60413C16.1685 3.46393 16.1685 3.32479 16.1577 3.18616C16.8804 2.72933 17.5041 2.16213 18 1.51312C17.3268 1.77461 16.6113 1.9461 15.8796 2.02171C16.65 1.61766 17.2269 0.98286 17.5032 0.23382C16.7778 0.610308 15.9849 0.876018 15.1578 1.01859C13.7592 -0.28259 11.4201 -0.345632 9.9324 0.878352C8.9739 1.66756 8.5662 2.84426 8.8641 3.96663C5.895 3.83589 3.1284 2.60877 1.2528 0.59007C0.2727 2.06688 0.774 3.95543 2.3967 4.90374C1.809 4.88877 1.2339 4.7503 0.72 4.49984V4.54085C0.7209 6.07911 1.9602 7.40362 3.6828 7.70843C3.1392 7.83839 2.5686 7.85724 2.016 7.76351C2.4993 9.08044 3.8862 9.98244 5.4657 10.0084C4.158 10.9079 2.5425 11.3963 0.8793 11.3948C0.5859 11.394 0.2925 11.379 0 11.3483C1.6893 12.2966 3.654 12.7999 5.661 12.7975" fill="#CCCCCC"/>
</svg>
