<svg width="14" height="12" viewBox="0 0 14 12" fill="none" xmlns="http://www.w3.org/2000/svg">
<path d="M11.6663 1.56923H10.333V1.0102C10.333 0.861936 10.2628 0.719745 10.1377 0.614907C10.0127 0.510069 9.84315 0.451172 9.66634 0.451172C9.48953 0.451172 9.31996 0.510069 9.19494 0.614907C9.06991 0.719745 8.99967 0.861936 8.99967 1.0102V1.56923H4.99967V1.0102C4.99967 0.861936 4.92944 0.719745 4.80441 0.614907C4.67939 0.510069 4.50982 0.451172 4.33301 0.451172C4.1562 0.451172 3.98663 0.510069 3.8616 0.614907C3.73658 0.719745 3.66634 0.861936 3.66634 1.0102V1.56923H2.33301C1.80257 1.56923 1.29387 1.74592 0.918794 2.06043C0.543722 2.37495 0.333008 2.80152 0.333008 3.24631V9.95464C0.333008 10.3994 0.543722 10.826 0.918794 11.1405C1.29387 11.455 1.80257 11.6317 2.33301 11.6317H11.6663C12.1968 11.6317 12.7055 11.455 13.0806 11.1405C13.4556 10.826 13.6663 10.3994 13.6663 9.95464V3.24631C13.6663 2.80152 13.4556 2.37495 13.0806 2.06043C12.7055 1.74592 12.1968 1.56923 11.6663 1.56923ZM12.333 9.95464C12.333 10.1029 12.2628 10.2451 12.1377 10.3499C12.0127 10.4548 11.8432 10.5137 11.6663 10.5137H2.33301C2.1562 10.5137 1.98663 10.4548 1.8616 10.3499C1.73658 10.2451 1.66634 10.1029 1.66634 9.95464V6.04145H12.333V9.95464ZM12.333 4.92339H1.66634V3.24631C1.66634 3.09805 1.73658 2.95586 1.8616 2.85102C1.98663 2.74618 2.1562 2.68728 2.33301 2.68728H3.66634V3.24631C3.66634 3.39457 3.73658 3.53677 3.8616 3.6416C3.98663 3.74644 4.1562 3.80534 4.33301 3.80534C4.50982 3.80534 4.67939 3.74644 4.80441 3.6416C4.92944 3.53677 4.99967 3.39457 4.99967 3.24631V2.68728H8.99967V3.24631C8.99967 3.39457 9.06991 3.53677 9.19494 3.6416C9.31996 3.74644 9.48953 3.80534 9.66634 3.80534C9.84315 3.80534 10.0127 3.74644 10.1377 3.6416C10.2628 3.53677 10.333 3.39457 10.333 3.24631V2.68728H11.6663C11.8432 2.68728 12.0127 2.74618 12.1377 2.85102C12.2628 2.95586 12.333 3.09805 12.333 3.24631V4.92339Z" fill="#FF6B6C"/>
</svg>
