<svg width="10" height="10" viewBox="0 0 10 10" fill="none" xmlns="http://www.w3.org/2000/svg">
<path d="M3.75033 4.58333V2.5C3.75033 1.80965 4.30995 1.25 5.00033 1.25C5.6907 1.25 6.25033 1.80965 6.25033 2.5V4.56971M4.33366 8.75H5.66699C6.60041 8.75 7.06712 8.75 7.42366 8.56833C7.73724 8.40854 7.9922 8.15358 8.15199 7.84C8.33366 7.48346 8.33366 7.01675 8.33366 6.08333V5.08333C8.33366 4.61662 8.33366 4.38325 8.24283 4.205C8.16295 4.0482 8.03545 3.92072 7.87866 3.84083C7.70041 3.75 7.46703 3.75 7.00033 3.75H3.00033C2.53362 3.75 2.30026 3.75 2.122 3.84083C1.9652 3.92072 1.83771 4.0482 1.75782 4.205C1.66699 4.38325 1.66699 4.61662 1.66699 5.08333V6.08333C1.66699 7.01675 1.66699 7.48346 1.84865 7.84C2.00844 8.15358 2.2634 8.40854 2.57701 8.56833C2.93353 8.75 3.40024 8.75 4.33366 8.75Z" stroke="#787878" stroke-linecap="round" stroke-linejoin="round"/>
</svg>
