<svg width="16" height="14" viewBox="0 0 16 14" fill="none" xmlns="http://www.w3.org/2000/svg">
<path d="M12.6663 2.33335H11.333V1.75002C11.333 1.59531 11.2628 1.44694 11.1377 1.33754C11.0127 1.22815 10.8432 1.16669 10.6663 1.16669C10.4895 1.16669 10.32 1.22815 10.1949 1.33754C10.0699 1.44694 9.99967 1.59531 9.99967 1.75002V2.33335H5.99967V1.75002C5.99967 1.59531 5.92944 1.44694 5.80441 1.33754C5.67939 1.22815 5.50982 1.16669 5.33301 1.16669C5.1562 1.16669 4.98663 1.22815 4.8616 1.33754C4.73658 1.44694 4.66634 1.59531 4.66634 1.75002V2.33335H3.33301C2.80257 2.33335 2.29387 2.51773 1.91879 2.84592C1.54372 3.17411 1.33301 3.61922 1.33301 4.08335V11.0834C1.33301 11.5475 1.54372 11.9926 1.91879 12.3208C2.29387 12.649 2.80257 12.8334 3.33301 12.8334H12.6663C13.1968 12.8334 13.7055 12.649 14.0806 12.3208C14.4556 11.9926 14.6663 11.5475 14.6663 11.0834V4.08335C14.6663 3.61922 14.4556 3.17411 14.0806 2.84592C13.7055 2.51773 13.1968 2.33335 12.6663 2.33335ZM13.333 11.0834C13.333 11.2381 13.2628 11.3864 13.1377 11.4958C13.0127 11.6052 12.8432 11.6667 12.6663 11.6667H3.33301C3.1562 11.6667 2.98663 11.6052 2.8616 11.4958C2.73658 11.3864 2.66634 11.2381 2.66634 11.0834V7.00002H13.333V11.0834ZM13.333 5.83335H2.66634V4.08335C2.66634 3.92864 2.73658 3.78027 2.8616 3.67088C2.98663 3.56148 3.1562 3.50002 3.33301 3.50002H4.66634V4.08335C4.66634 4.23806 4.73658 4.38644 4.8616 4.49583C4.98663 4.60523 5.1562 4.66669 5.33301 4.66669C5.50982 4.66669 5.67939 4.60523 5.80441 4.49583C5.92944 4.38644 5.99967 4.23806 5.99967 4.08335V3.50002H9.99967V4.08335C9.99967 4.23806 10.0699 4.38644 10.1949 4.49583C10.32 4.60523 10.4895 4.66669 10.6663 4.66669C10.8432 4.66669 11.0127 4.60523 11.1377 4.49583C11.2628 4.38644 11.333 4.23806 11.333 4.08335V3.50002H12.6663C12.8432 3.50002 13.0127 3.56148 13.1377 3.67088C13.2628 3.78027 13.333 3.92864 13.333 4.08335V5.83335Z" fill="white"/>
</svg>
