<svg width="79" height="14" viewBox="0 0 79 14" fill="none" xmlns="http://www.w3.org/2000/svg">
<path d="M73.21 12.2882C75.9946 12.2882 78.252 9.92848 78.252 7.01758C78.252 4.10669 75.9946 1.74695 73.21 1.74695C70.4254 1.74695 68.168 4.10669 68.168 7.01758C68.168 9.92848 70.4254 12.2882 73.21 12.2882Z" fill="#D0D0D0"/>
<path d="M51.0254 12.2882C53.81 12.2882 56.0674 9.92848 56.0674 7.01758C56.0674 4.10669 53.81 1.74695 51.0254 1.74695C48.2408 1.74695 45.9834 4.10669 45.9834 7.01758C45.9834 9.92848 48.2408 12.2882 51.0254 12.2882Z" fill="#D0D0D0"/>
<path d="M28.8399 12.2882C31.6245 12.2882 33.8819 9.92848 33.8819 7.01758C33.8819 4.10669 31.6245 1.74695 28.8399 1.74695C26.0552 1.74695 23.7979 4.10669 23.7979 7.01758C23.7979 9.92848 26.0552 12.2882 28.8399 12.2882Z" fill="#D0D0D0"/>
<path d="M6.6553 12.2882C9.43993 12.2882 11.6973 9.92848 11.6973 7.01758C11.6973 4.10669 9.43993 1.74695 6.6553 1.74695C3.87067 1.74695 1.61328 4.10669 1.61328 7.01758C1.61328 9.92848 3.87067 12.2882 6.6553 12.2882Z" fill="#E182A8" stroke="#E182A8" stroke-opacity="0.2" stroke-width="3" stroke-linejoin="round"/>
</svg>
