<svg width="30" height="30" viewBox="0 0 30 30" fill="none" xmlns="http://www.w3.org/2000/svg">
<path d="M15 30C23.2843 30 30 23.2843 30 15C30 6.71573 23.2843 0 15 0C6.71573 0 0 6.71573 0 15C0 23.2843 6.71573 30 15 30Z" fill="#627CE1"/>
<path fill-rule="evenodd" clip-rule="evenodd" d="M16.8213 25V16.9H19.5537L20 13.3H16.8213V11.5466C16.8213 10.6196 16.8476 9.7 18.2869 9.7H19.7447V7.12612C19.7447 7.08742 18.4925 7 17.2257 7C14.58 7 12.9234 8.49148 12.9234 11.2302V13.3H10V16.9H12.9234V25H16.8213Z" fill="white"/>
</svg>
