<svg width="560" height="587" viewBox="0 0 560 587" fill="none" xmlns="http://www.w3.org/2000/svg">
<path opacity="0.02" fill-rule="evenodd" clip-rule="evenodd" d="M213.939 262.79C278.749 202.32 339.939 212.16 361.609 218.42C366.479 240.67 372.03 302.08 307.13 362.64C253.71 412.48 165.93 449.78 106.18 471.13C97.3596 474.28 87.8695 464.78 91.4995 456.47C116.88 398.34 160.299 312.84 213.939 262.79ZM432.479 231.44C446.449 234.58 474.999 244.1 501.159 272.12C518.199 290.38 531.489 313.74 540.669 341.52C564.529 413.82 560.479 514.2 554.449 577.16C553.839 583.63 548.35 591.07 541.49 583.28C499.46 535.48 435.18 457.27 411.05 384.15C383.21 299.77 417.549 248.6 432.479 231.44ZM335.109 392.62C345.255 383.21 354.629 373.001 363.14 362.09C365.345 373.897 368.352 385.541 372.14 396.94C377.411 412.618 383.787 427.903 391.219 442.68C372.199 487.06 346.399 530.43 324.689 561.93C318.649 570.69 310.519 571.17 308.339 563.55C298.059 527.62 290.71 477.65 288.41 429.04C304.933 418.179 320.55 405.999 335.109 392.62ZM251.13 31.3101C278.22 42.3801 300.61 57.2498 317.65 75.5098C343.79 103.51 351.32 132.62 353.5 146.83C335.44 160.48 281.99 191.28 199.66 157.65C130.57 129.43 56.5495 62.02 11.9795 16.29C6.3695 10.53 11.8696 1.37997 18.2996 1.20997C81.5196 -0.460033 180.57 2.49006 251.13 31.3101ZM6.36951 260.81C41.5395 233.73 92.3595 198.34 143.62 175.58C156.697 183.126 170.252 189.81 184.199 195.59C195.314 200.152 206.728 203.951 218.36 206.96C206.886 214.698 196.052 223.342 185.959 232.81C169.169 248.48 153.44 266.99 138.88 286.86C94.2752 286.968 49.755 282.982 5.87952 274.95C-3.37048 273.2 1.05951 264.9 6.36951 260.81ZM361.959 173.47C364.03 175.683 366.71 177.232 369.661 177.922C372.612 178.612 375.701 178.412 378.538 177.346C381.375 176.281 383.832 174.398 385.599 171.937C387.367 169.475 388.364 166.544 388.466 163.516C388.568 160.487 387.77 157.496 386.173 154.921C384.575 152.346 382.25 150.302 379.491 149.048C376.732 147.794 373.664 147.386 370.673 147.876C367.682 148.366 364.904 149.731 362.689 151.8C359.721 154.578 357.977 158.421 357.84 162.484C357.703 166.547 359.185 170.499 361.959 173.47ZM401.849 216.2C403.919 218.412 406.598 219.961 409.547 220.65C412.497 221.34 415.584 221.14 418.42 220.075C421.256 219.01 423.712 217.129 425.479 214.668C427.245 212.207 428.242 209.278 428.344 206.25C428.447 203.223 427.649 200.234 426.052 197.66C424.455 195.086 422.131 193.043 419.373 191.79C416.616 190.536 413.549 190.129 410.559 190.618C407.57 191.108 404.793 192.472 402.579 194.54C399.612 197.316 397.868 201.157 397.731 205.219C397.594 209.28 399.076 213.23 401.849 216.2Z" fill="#212121"/>
</svg>
