<svg width="149" height="81" viewBox="0 0 149 81" fill="none" xmlns="http://www.w3.org/2000/svg">
<path opacity="0.1" fill-rule="evenodd" clip-rule="evenodd" d="M61.556 42.7299C61.556 59.1599 70.68 66.2101 74.291 68.3601C77.942 66.2001 87.02 59.1899 87.02 42.7299C87.02 29.1799 80.9399 12.56 76.2499 1.75997C76.0795 1.3989 75.8131 1.0916 75.4797 0.871787C75.1464 0.651977 74.7591 0.528086 74.3601 0.513632C73.961 0.499179 73.5658 0.594882 73.2174 0.79C72.8691 0.985117 72.5811 1.27229 72.385 1.62008C67.689 12.4201 61.556 29.1199 61.556 42.7299ZM85.0789 76.32C89.319 79.0967 94.2911 80.545 99.359 80.4799C104.378 80.3967 109.319 79.2302 113.845 77.06C126.74 71.14 139.9 57.8901 147.72 49.1101C148.52 48.2101 148.84 46.52 146.91 46.58C135.05 46.93 116.21 48.11 103.169 54.09C88.126 60.99 85.5189 72.12 85.0789 76.32ZM94.666 42.7299C94.6715 45.2952 94.4708 47.8567 94.0659 50.3899C95.9562 49.1909 97.9276 48.125 99.966 47.1999C102.774 45.9279 105.669 44.8586 108.629 44C111.987 36.2294 114.597 28.1561 116.422 19.8899C116.852 17.9599 115.882 16.7999 114.565 17.4699C107.113 21.4784 100.115 26.2796 93.6929 31.79C94.3139 35.4042 94.6393 39.0629 94.666 42.7299ZM34.7319 77.06C39.2579 79.2302 44.1993 80.3967 49.218 80.4799C54.2861 80.5421 59.2579 79.094 63.4999 76.32C63.0629 72.14 60.4639 61 45.4069 54.09C32.7739 48.3 14.17 46.79 2.26496 46.54C1.95169 46.5543 1.64846 46.6551 1.38886 46.831C1.12926 47.007 0.923393 47.2512 0.794013 47.5368C0.664634 47.8225 0.616776 48.1385 0.655769 48.4497C0.694762 48.7608 0.819094 49.0551 1.01496 49.3C8.82896 58.08 21.8279 71.14 34.7319 77.06ZM34.885 14.84C35.667 23.03 37.3079 34.3999 40.7249 44.2299C43.4164 45.0462 46.0515 46.0383 48.6129 47.1999C50.6494 48.1254 52.6192 49.1913 54.5079 50.3899C54.1031 47.8567 53.9024 45.2952 53.908 42.7299C53.9543 38.2866 54.4163 33.8573 55.288 29.5C49.625 23.4391 43.4191 17.9093 36.7479 12.9799C35.3359 11.9499 34.768 13.6 34.885 14.84ZM68.2059 74.09C68.7682 74.093 69.317 74.2625 69.783 74.5771C70.249 74.8917 70.6113 75.3372 70.8242 75.8576C71.037 76.378 71.0909 76.9499 70.9791 77.5009C70.8672 78.052 70.5945 78.5574 70.1956 78.9536C69.7966 79.3498 69.2892 79.619 68.7374 79.727C68.1856 79.835 67.6142 79.777 67.0953 79.5605C66.5764 79.344 66.1333 78.9786 65.822 78.5105C65.5106 78.0423 65.345 77.4922 65.346 76.9299C65.3502 76.1745 65.6535 75.4517 66.1895 74.9194C66.7255 74.3871 67.4506 74.089 68.2059 74.09ZM79.106 74.09C79.6682 74.093 80.2169 74.2625 80.6829 74.5771C81.1489 74.8917 81.5112 75.3372 81.7241 75.8576C81.937 76.378 81.9909 76.9499 81.879 77.5009C81.7672 78.052 81.4946 78.5574 81.0956 78.9536C80.6966 79.3498 80.1892 79.619 79.6374 79.727C79.0856 79.835 78.5142 79.777 77.9953 79.5605C77.4764 79.344 77.0333 78.9786 76.722 78.5105C76.4106 78.0423 76.2449 77.4922 76.2459 76.9299C76.2499 76.1746 76.553 75.4517 77.0889 74.9194C77.6247 74.3871 78.3496 74.089 79.1049 74.09H79.106Z" fill="#E182A8"/>
</svg>
