<svg width="149" height="81" viewBox="0 0 149 81" fill="none" xmlns="http://www.w3.org/2000/svg">
<path opacity="0.1" fill-rule="evenodd" clip-rule="evenodd" d="M61.5559 42.7299C61.5559 59.1599 70.6799 66.2098 74.2909 68.3598C77.9419 66.1998 87.0209 59.1899 87.0209 42.7299C87.0209 29.1799 80.9399 12.5597 76.2499 1.75973C76.0795 1.39866 75.813 1.09184 75.4797 0.872031C75.1464 0.652222 74.759 0.528086 74.36 0.513632C73.961 0.499179 73.5657 0.594882 73.2174 0.79C72.869 0.985117 72.581 1.27229 72.3849 1.62008C67.6889 12.4201 61.5559 29.1199 61.5559 42.7299ZM85.0789 76.3198C89.3189 79.0964 94.291 80.545 99.3589 80.4799C104.378 80.397 109.319 79.2304 113.845 77.06C126.74 71.14 139.9 57.8898 147.72 49.1098C148.52 48.2098 148.84 46.52 146.91 46.58C135.05 46.93 116.21 48.1098 103.169 54.0898C88.1259 60.9898 85.5189 72.1198 85.0789 76.3198ZM94.6659 42.7299C94.6714 45.2952 94.4707 47.857 94.0659 50.3901C95.954 49.1911 97.9235 48.1252 99.9599 47.2002C102.768 45.9283 105.663 44.8587 108.623 44C111.982 36.2296 114.591 28.1564 116.416 19.8901C116.846 17.9601 115.876 16.8002 114.556 17.4702C107.105 21.4795 100.108 26.2804 93.6869 31.79C94.3099 35.404 94.6373 39.0627 94.6659 42.7299ZM34.7319 77.06C39.2578 79.2302 44.1993 80.3967 49.2179 80.4799C54.2861 80.5423 59.258 79.0939 63.4999 76.3198C63.0629 72.1398 60.4639 60.9998 45.4069 54.0898C32.7739 48.2998 14.1699 46.79 2.2659 46.54C1.95254 46.5541 1.64924 46.6547 1.3895 46.8305C1.12976 47.0064 0.923719 47.2509 0.794223 47.5366C0.664726 47.8223 0.616783 48.1379 0.655734 48.4492C0.694684 48.7604 0.819019 49.0548 1.01493 49.2998C8.82893 58.0798 21.8279 71.14 34.7319 77.06ZM34.8859 14.8398C35.6669 23.0298 37.3079 34.3999 40.7249 44.2299C43.4164 45.0462 46.0514 46.0385 48.6129 47.2002C50.6494 48.1257 52.6192 49.1915 54.5079 50.3901C54.103 47.857 53.9024 45.2952 53.9079 42.7299C53.9538 38.2898 54.4158 33.8636 55.2879 29.5097C49.6278 23.443 43.4216 17.9099 36.7479 12.9799C35.3359 11.9499 34.7679 13.5998 34.8859 14.8398ZM68.2059 74.0898C68.7682 74.0928 69.3169 74.2625 69.7829 74.5771C70.2489 74.8917 70.6112 75.3375 70.8241 75.8579C71.037 76.3783 71.0909 76.9499 70.979 77.5009C70.8672 78.052 70.5945 78.5574 70.1955 78.9536C69.7966 79.3498 69.2892 79.619 68.7374 79.727C68.1856 79.835 67.6141 79.777 67.0952 79.5605C66.5764 79.344 66.1333 78.9784 65.8219 78.5102C65.5106 78.042 65.3449 77.4924 65.3459 76.9301C65.3472 76.5559 65.4222 76.1856 65.5667 75.8403C65.7111 75.495 65.9221 75.1812 66.1877 74.9174C66.4533 74.6537 66.7682 74.4452 67.1145 74.3032C67.4608 74.1612 67.8316 74.0885 68.2059 74.0898ZM79.1059 74.0898C79.6682 74.0928 80.2169 74.2625 80.6829 74.5771C81.1489 74.8917 81.5112 75.3375 81.7241 75.8579C81.937 76.3783 81.9909 76.9499 81.879 77.5009C81.7671 78.052 81.4945 78.5574 81.0956 78.9536C80.6966 79.3498 80.1891 79.619 79.6374 79.727C79.0856 79.835 78.5142 79.777 77.9953 79.5605C77.4764 79.344 77.0333 78.9784 76.722 78.5102C76.4106 78.042 76.2449 77.4924 76.2459 76.9301C76.2485 76.1744 76.5512 75.4505 77.0874 74.9179C77.6235 74.3854 78.3492 74.0874 79.1049 74.0898H79.1059Z" fill="#E182A8"/>
</svg>
