<svg width="149" height="81" viewBox="0 0 149 81" fill="none" xmlns="http://www.w3.org/2000/svg">
<path opacity="0.1" fill-rule="evenodd" clip-rule="evenodd" d="M61.5559 42.7299C61.5559 59.1599 70.6799 66.2101 74.2909 68.3601C77.9419 66.2001 87.0209 59.1899 87.0209 42.7299C87.0209 29.1799 80.9399 12.56 76.2499 1.75997C76.0795 1.3989 75.813 1.0916 75.4797 0.871787C75.1464 0.651977 74.759 0.528086 74.36 0.513632C73.961 0.499179 73.5657 0.594882 73.2174 0.79C72.869 0.985117 72.581 1.27229 72.3849 1.62008C67.6889 12.4201 61.5559 29.1199 61.5559 42.7299ZM85.0789 76.32C89.3189 79.0967 94.291 80.545 99.3589 80.4799C104.378 80.397 109.319 79.2304 113.845 77.06C126.74 71.14 139.9 57.8901 147.72 49.1101C148.52 48.2101 148.84 46.52 146.91 46.58C135.05 46.93 116.21 48.11 103.169 54.09C88.1259 60.99 85.5189 72.12 85.0789 76.32ZM94.6659 42.7299C94.6709 45.2952 94.4703 47.8567 94.0659 50.3899C95.954 49.1909 97.9235 48.125 99.9599 47.1999C102.768 45.9281 105.663 44.8587 108.623 44C111.982 36.2296 114.591 28.1562 116.416 19.8899C116.846 17.9599 115.876 16.7999 114.556 17.4699C107.105 21.4793 100.108 26.2804 93.6869 31.79C94.3099 35.404 94.6373 39.0627 94.6659 42.7299ZM34.7319 77.06C39.2578 79.2302 44.1993 80.3967 49.2179 80.4799C54.2861 80.5423 59.258 79.0941 63.4999 76.32C63.0629 72.14 60.4639 61 45.4069 54.09C32.7739 48.3 14.1699 46.79 2.2659 46.54C1.95254 46.5541 1.64924 46.6547 1.3895 46.8305C1.12976 47.0064 0.923719 47.2506 0.794223 47.5363C0.664726 47.822 0.616783 48.1382 0.655734 48.4494C0.694684 48.7607 0.819019 49.055 1.01493 49.3C8.82893 58.08 21.8279 71.14 34.7319 77.06ZM34.8859 14.84C35.6669 23.03 37.3079 34.3999 40.7249 44.2299C43.4164 45.0462 46.0514 46.0383 48.6129 47.1999C50.6494 48.1254 52.6192 49.1913 54.5079 50.3899C54.103 47.8567 53.9024 45.2952 53.9079 42.7299C53.9538 38.2898 54.4158 33.8638 55.2879 29.51C49.6278 23.4432 43.4216 17.9099 36.7479 12.9799C35.3359 11.9499 34.7679 13.6 34.8859 14.84ZM68.2059 74.09C68.7682 74.093 69.3169 74.2625 69.7829 74.5771C70.2489 74.8917 70.6112 75.3372 70.8241 75.8576C71.037 76.378 71.0909 76.9499 70.979 77.5009C70.8672 78.052 70.5945 78.5574 70.1955 78.9536C69.7966 79.3498 69.2892 79.619 68.7374 79.727C68.1856 79.835 67.6141 79.777 67.0952 79.5605C66.5764 79.344 66.1333 78.9786 65.8219 78.5105C65.5106 78.0423 65.3449 77.4922 65.3459 76.9299C65.3501 76.1745 65.6535 75.4517 66.1895 74.9194C66.7255 74.3871 67.4505 74.089 68.2059 74.09ZM79.1059 74.09C79.6682 74.093 80.2169 74.2625 80.6829 74.5771C81.1489 74.8917 81.5112 75.3372 81.7241 75.8576C81.937 76.378 81.9909 76.9499 81.879 77.5009C81.7671 78.052 81.4945 78.5574 81.0956 78.9536C80.6966 79.3498 80.1891 79.619 79.6374 79.727C79.0856 79.835 78.5142 79.777 77.9953 79.5605C77.4764 79.344 77.0333 78.9786 76.722 78.5105C76.4106 78.0423 76.2449 77.4922 76.2459 76.9299C76.2501 76.1747 76.5533 75.4519 77.0891 74.9196C77.6249 74.3874 78.3497 74.0892 79.1049 74.09H79.1059Z" fill="#E182A8"/>
</svg>
