<svg width="34" height="34" viewBox="0 0 34 34" fill="none" xmlns="http://www.w3.org/2000/svg">
<path d="M17 33C25.8366 33 33 25.8366 33 17C33 8.16344 25.8366 1 17 1C8.16344 1 1 8.16344 1 17C1 25.8366 8.16344 33 17 33Z" stroke="#CCCCCC"/>
<path fill-rule="evenodd" clip-rule="evenodd" d="M10.4792 17C10.4792 13.8704 13.1748 11.3333 16.5 11.3333C19.8252 11.3333 22.5208 13.8704 22.5208 17C22.5208 20.1296 19.8252 22.6667 16.5 22.6667C15.7715 22.6667 15.0733 22.5449 14.427 22.3219C14.8342 21.2906 15.2331 20.2565 15.6158 19.217C16.0226 19.4899 16.5473 19.6667 17.2083 19.6667C18.579 19.6667 20.0239 18.8165 20.3821 17.1307C20.8318 15.0143 19.0307 13 16.5 13C15.4355 13 14.3884 13.4025 13.605 14.0416C12.8201 14.6821 12.25 15.6046 12.25 16.6667C12.25 17.1831 12.4157 17.7585 12.8106 18.1371C13.0838 18.3946 13.5398 18.3955 13.8134 18.1381C14.0847 17.8827 14.0899 17.4716 13.8289 17.2103C13.2722 16.5565 14.0056 15.4794 14.533 15.0491C15.0804 14.6024 15.8041 14.3333 16.5 14.3333C18.2193 14.3333 19.2515 15.6523 18.9929 16.8693C18.7784 17.8789 17.9627 18.3333 17.2083 18.3333C16.629 18.3333 16.317 18.1031 16.1174 17.8053C16.2264 17.4825 16.3197 17.1892 16.3857 16.9509C16.522 16.4591 16.6043 15.8668 16.1344 15.4983C15.7851 15.2243 15.3728 15.2851 15.1207 15.4037C14.6522 15.6242 14.375 16.1399 14.375 16.6667C14.375 16.9609 14.4237 17.4169 14.5994 17.8877C14.1471 19.172 13.6566 20.4447 13.1561 21.7131C11.542 20.6966 10.4792 18.9651 10.4792 17ZM16.5 10C12.3924 10 9.0625 13.134 9.0625 17C9.0625 20.866 12.3924 24 16.5 24C20.6076 24 23.9375 20.866 23.9375 17C23.9375 13.134 20.6076 10 16.5 10Z" fill="#CCCCCC"/>
</svg>
