<svg width="285" height="46" viewBox="0 0 285 46" fill="none" xmlns="http://www.w3.org/2000/svg">
<path d="M262.5 45.5635C274.926 45.5635 285 35.4899 285 23.0635C285 10.6371 274.926 0.563477 262.5 0.563477C250.074 0.563477 240 10.6371 240 23.0635C240 35.4899 250.074 45.5635 262.5 45.5635Z" fill="#EEEEEE"/>
<g clip-path="url(#clip0_12_3773)">
<path d="M258.517 14.362C257.973 14.3591 257.53 14.7976 257.527 15.3415C257.524 15.8854 257.962 16.3287 258.506 16.3317L258.517 14.362ZM272.138 28.6654C272.195 29.2063 272.68 29.5984 273.221 29.5412C273.762 29.4841 274.154 28.9993 274.097 28.4584L272.138 28.6654ZM259.088 29.389C258.684 29.0241 258.062 29.0552 257.697 29.4586C257.332 29.8619 257.363 30.4847 257.766 30.8496L259.088 29.389ZM257.773 30.8562C258.177 31.2211 258.8 31.19 259.164 30.7867C259.529 30.3833 259.498 29.7606 259.095 29.3956L257.773 30.8562ZM262.348 29.7354C262.4 30.2767 262.882 30.6728 263.423 30.62C263.965 30.5672 264.361 30.0856 264.308 29.5442L262.348 29.7354ZM267.248 29.256C267.301 29.7973 267.783 30.1934 268.324 30.1405C268.865 30.0877 269.262 29.6061 269.209 29.0648L267.248 29.256ZM258.413 24.2102C257.869 24.2117 257.429 24.6538 257.43 25.1977C257.432 25.7416 257.874 26.1814 258.418 26.1799L258.413 24.2102ZM258.401 19.2861C257.857 19.2875 257.417 19.7296 257.419 20.2735C257.42 20.8174 257.862 21.2572 258.406 21.2557L258.401 19.2861ZM258.506 16.3317C261.781 16.3493 265.058 17.5257 267.677 19.8954L268.999 18.4348C266.007 15.7275 262.257 14.3822 258.517 14.362L258.506 16.3317ZM267.677 19.8954C270.296 22.265 271.794 25.409 272.138 28.6654L274.097 28.4584C273.704 24.7387 271.991 21.142 268.999 18.4348L267.677 19.8954ZM257.766 30.8496L257.773 30.8562L259.095 29.3956L259.088 29.389L257.766 30.8496ZM261.07 27.1982C261.827 27.8832 262.256 28.7931 262.348 29.7354L264.308 29.5442C264.17 28.1331 263.526 26.7642 262.391 25.7376L261.07 27.1982ZM264.374 23.5468C266.077 25.0876 267.042 27.1368 267.248 29.256L269.209 29.0648C268.956 26.4768 267.776 23.9685 265.695 22.0862L264.374 23.5468ZM258.418 26.1799C259.365 26.1774 260.313 26.5132 261.07 27.1982L262.391 25.7376C261.257 24.7111 259.831 24.2065 258.413 24.2102L258.418 26.1799ZM258.406 21.2557C260.535 21.2501 262.671 22.006 264.374 23.5468L265.695 22.0862C263.615 20.2039 261.001 19.2791 258.401 19.2861L258.406 21.2557Z" fill="#838383"/>
</g>
<path d="M202.5 45.5635C214.926 45.5635 225 35.4899 225 23.0635C225 10.6371 214.926 0.563477 202.5 0.563477C190.074 0.563477 180 10.6371 180 23.0635C180 35.4899 190.074 45.5635 202.5 45.5635Z" fill="#EEEEEE"/>
<g clip-path="url(#clip1_12_3773)">
<path d="M207.816 28.4946C209.215 27.1852 210 25.4118 210 23.5631C210 21.7143 209.215 19.9409 207.816 18.6316C207.811 18.6257 207.809 18.6187 207.803 18.6135C207.797 18.6082 207.79 18.6065 207.784 18.6012C206.381 17.2962 204.481 16.5635 202.5 16.5635C200.52 16.5635 198.62 17.2962 197.217 18.6012C197.211 18.6065 197.202 18.6082 197.197 18.6141C197.191 18.6199 197.189 18.6269 197.183 18.6327C195.785 19.9421 195 21.7152 195 23.5637C195 25.4121 195.785 27.1853 197.183 28.4946C197.189 28.5004 197.191 28.508 197.197 28.5132C197.203 28.5185 197.211 28.5208 197.217 28.5261C198.62 29.8311 200.52 30.5638 202.5 30.5638C204.481 30.5638 206.381 29.8311 207.784 28.5261C207.79 28.5208 207.797 28.5197 207.803 28.5138C207.809 28.508 207.812 28.5004 207.816 28.4946ZM196.286 24.1779C197.496 24.2948 198.642 24.7411 199.582 25.4612L197.664 27.2521C196.893 26.3757 196.414 25.3078 196.286 24.1802V24.1779ZM197.661 19.8717L201.616 23.5631L200.468 24.6347C199.287 23.7004 197.823 23.1328 196.281 23.0107C196.397 21.86 196.878 20.7679 197.664 19.8741L197.661 19.8717ZM208.711 22.9436C207.501 22.8264 206.355 22.3802 205.414 21.6602L207.333 19.8694C208.106 20.7467 208.586 21.8164 208.714 22.9459L208.711 22.9436ZM204.531 20.8377C203.759 19.96 203.281 18.89 203.156 17.7607C204.363 17.8793 205.507 18.3255 206.447 19.044L204.531 20.8377ZM203.647 21.6672L202.5 22.7382L198.547 19.0492C199.505 18.3162 200.675 17.8665 201.908 17.7577C202.039 19.1978 202.647 20.5642 203.647 21.6672ZM200.466 26.2861C201.238 27.1638 201.716 28.2338 201.841 29.3632C200.633 29.2436 199.489 28.7965 198.55 28.0769L200.466 26.2861ZM201.352 25.4595L202.5 24.3879L206.452 28.0769C205.495 28.8102 204.325 29.2599 203.092 29.3684C202.961 27.9283 202.353 26.5621 201.352 25.4595ZM203.384 23.5631L204.531 22.4921C205.713 23.4257 207.176 23.9931 208.719 24.1155C208.602 25.2662 208.12 26.3584 207.335 27.2521L203.384 23.5631Z" fill="#838383"/>
</g>
<path d="M142.5 45.5635C154.926 45.5635 165 35.4899 165 23.0635C165 10.6371 154.926 0.563477 142.5 0.563477C130.074 0.563477 120 10.6371 120 23.0635C120 35.4899 130.074 45.5635 142.5 45.5635Z" fill="#EEEEEE"/>
<g clip-path="url(#clip2_12_3773)">
<path fill-rule="evenodd" clip-rule="evenodd" d="M140.787 25.5204V20.1892C142.979 21.0797 144.676 21.94 146.683 22.8675C145.028 23.6605 142.979 24.5502 140.787 25.5204ZM153 17.5377C152.622 17.1076 151.978 16.7728 151.292 16.6619C149.276 16.3313 136.698 16.3303 134.683 16.6619C134.133 16.751 133.643 16.9662 133.222 17.3007C131.45 18.7218 132.005 26.3427 132.432 27.5772C132.612 28.1115 132.844 28.4969 133.137 28.7498C133.514 29.0843 134.03 29.3145 134.623 29.4178C136.283 29.7143 144.835 29.8801 151.257 29.4623C151.849 29.3733 152.372 29.1356 152.785 28.7869C154.425 27.3715 154.313 19.3226 153 17.5377Z" fill="#838383"/>
</g>
<path d="M82.5 45.5635C94.9264 45.5635 105 35.4899 105 23.0635C105 10.6371 94.9264 0.563477 82.5 0.563477C70.0736 0.563477 60 10.6371 60 23.0635C60 35.4899 70.0736 45.5635 82.5 45.5635Z" fill="#EEEEEE"/>
<path fill-rule="evenodd" clip-rule="evenodd" d="M79.661 29.9634C86.4533 29.9634 90.1685 25.0383 90.1685 20.7677C90.1685 20.6275 90.1685 20.4884 90.1577 20.3497C90.8804 19.8929 91.5041 19.3257 92 18.6767C91.3268 18.9382 90.6113 19.1097 89.8796 19.1853C90.65 18.7812 91.2269 18.1464 91.5032 17.3974C90.7778 17.7739 89.9849 18.0396 89.1578 18.1822C87.7592 16.881 85.4201 16.8179 83.9324 18.0419C82.9739 18.8311 82.5662 20.0078 82.8641 21.1302C79.895 20.9995 77.1284 19.7723 75.2528 17.7536C74.2727 19.2305 74.774 21.119 76.3967 22.0673C75.809 22.0523 75.2339 21.9139 74.72 21.6634V21.7044C74.7209 23.2427 75.9602 24.5672 77.6828 24.872C77.1392 25.002 76.5686 25.0208 76.016 24.9271C76.4993 26.244 77.8862 27.146 79.4657 27.172C78.158 28.0715 76.5425 28.5599 74.8793 28.5583C74.5859 28.5575 74.2925 28.5426 74 28.5118C75.6893 29.4602 77.654 29.9634 79.661 29.9611" fill="#838383"/>
<path d="M22.5 45.5635C34.9264 45.5635 45 35.4899 45 23.0635C45 10.6371 34.9264 0.563477 22.5 0.563477C10.0736 0.563477 0 10.6371 0 23.0635C0 35.4899 10.0736 45.5635 22.5 45.5635Z" fill="#EEEEEE"/>
<defs>
<clipPath id="clip0_12_3773">
<rect width="23.6361" height="23.6361" fill="white" transform="translate(262.879 7.58447) rotate(42.1384)"/>
</clipPath>
<clipPath id="clip1_12_3773">
<rect width="15" height="14" fill="white" transform="translate(195 16.5635)"/>
</clipPath>
<clipPath id="clip2_12_3773">
<rect width="22" height="19" fill="white" transform="translate(132 13.5635)"/>
</clipPath>
</defs>
</svg>
