<svg width="11" height="11" viewBox="0 0 11 11" fill="none" xmlns="http://www.w3.org/2000/svg">
<g clip-path="url(#clip0_12_4317)">
<path d="M9.20127 2.19445C9.22651 2.17188 9.24663 2.14418 9.26035 2.11319C9.274 2.0822 9.28092 2.04865 9.2806 2.01477C9.28028 1.9809 9.27271 1.94749 9.25841 1.91678C9.24411 1.88607 9.2234 1.85877 9.19771 1.83671C9.1706 1.81349 9.14375 1.79038 9.11709 1.7674C8.91365 1.59248 8.70329 1.41136 8.48329 1.25686C6.80243 0.0738452 5.05593 0.0671896 3.29261 0.694589C1.69609 1.26223 0.670829 2.39787 0.244882 4.06935C-0.230269 5.93681 0.185811 7.58429 1.48243 8.9666C1.51616 9.00232 1.55059 9.03803 1.58497 9.07213C2.28149 9.76869 3.14903 10.1987 3.83642 10.4979C4.13147 10.6268 5.64532 10.7833 6.05493 10.7223C8.48912 10.3587 10.091 8.98582 10.6489 6.68892C10.7554 6.23901 10.8085 5.7781 10.8069 5.31575C10.8046 4.83018 10.7229 4.34827 10.5652 3.88901C10.5537 3.85466 10.5348 3.82326 10.5098 3.79708C10.4847 3.7709 10.4542 3.75058 10.4204 3.73756C10.3866 3.72455 10.3503 3.71917 10.3142 3.7218C10.2781 3.72444 10.243 3.73504 10.2115 3.75282L10.2049 3.75659C10.1547 3.7853 10.1162 3.83073 10.0962 3.88493C10.0762 3.93913 10.0758 3.99863 10.0952 4.05305C10.2376 4.4478 10.3102 4.86431 10.3097 5.28394C10.3048 5.78736 10.2367 6.28818 10.1069 6.77462C9.72228 8.17246 8.80281 9.19126 7.29594 9.88814C5.76397 10.6216 3.56704 9.88005 2.98251 9.49414C2.33644 9.05246 1.77111 8.50298 1.31127 7.8697C0.590094 6.84858 0.428297 5.38097 0.815828 4.03924C0.997179 3.41974 1.31412 2.84836 1.74367 2.36655C2.17322 1.88473 2.70461 1.50454 3.2993 1.25355C4.84644 0.610592 6.39881 0.497174 7.91291 1.4601C8.11589 1.58935 8.63354 1.99579 8.89515 2.20335C8.93902 2.23817 8.99382 2.25635 9.04979 2.25467C9.10583 2.25299 9.15941 2.23156 9.20114 2.19417L9.20127 2.19445Z" fill="#888888"/>
<path d="M4.82903 6.97601C4.93272 6.87746 4.98968 6.82757 5.04182 6.77309C6.71355 5.02658 8.54433 3.4542 10.3859 1.89399C10.4556 1.83506 10.5268 1.75987 10.6092 1.73876C10.7085 1.71338 10.8704 1.74257 10.9148 1.7965C10.944 1.83636 10.9625 1.88304 10.9683 1.93207C10.9743 1.9811 10.9675 2.03083 10.9487 2.07649C10.9055 2.19 10.8 2.28721 10.7043 2.37218C10.1335 2.87941 9.54669 3.36916 8.98595 3.88686C7.81374 4.96944 6.64903 6.06007 5.49173 7.15874C4.98463 7.63912 4.78947 7.65859 4.32285 7.14528C4.01569 6.80726 3.08871 5.66793 2.80483 5.30896C2.76471 5.25316 2.72899 5.19434 2.69797 5.13302C2.63394 5.01947 2.59208 4.89435 2.71936 4.80632C2.86114 4.70828 2.96175 4.81058 3.0458 4.91711C3.13085 5.02498 3.20337 5.14345 3.29443 5.24566C3.57713 5.56288 4.52358 6.64142 4.82903 6.97601Z" fill="#888888"/>
</g>
<defs>
<clipPath id="clip0_12_4317">
<rect width="11" height="11" fill="white"/>
</clipPath>
</defs>
</svg>
