<svg width="18" height="14" viewBox="0 0 18 14" fill="none" xmlns="http://www.w3.org/2000/svg">
<path fill-rule="evenodd" clip-rule="evenodd" d="M5.661 13.3633C12.4533 13.3633 16.1685 8.43816 16.1685 4.16761C16.1685 4.02741 16.1685 3.88826 16.1577 3.74964C16.8804 3.29281 17.5041 2.7256 18 2.07659C17.3268 2.33809 16.6113 2.50958 15.8796 2.58519C16.65 2.18113 17.2269 1.54634 17.5032 0.797297C16.7778 1.17378 15.9849 1.43949 15.1578 1.58206C13.7592 0.280886 11.4201 0.217844 9.9324 1.44183C8.9739 2.23104 8.5662 3.40773 8.8641 4.53011C5.895 4.39937 3.1284 3.17225 1.2528 1.15355C0.2727 2.63035 0.774 4.51891 2.3967 5.46722C1.809 5.45225 1.2339 5.31378 0.72 5.06331V5.10433C0.7209 6.64258 1.9602 7.9671 3.6828 8.27191C3.1392 8.40187 2.5686 8.42071 2.016 8.32698C2.4993 9.64391 3.8862 10.5459 5.4657 10.5719C4.158 11.4714 2.5425 11.9598 0.8793 11.9582C0.5859 11.9574 0.2925 11.9425 0 11.9118C1.6893 12.8601 3.654 13.3633 5.661 13.361" fill="#838383"/>
</svg>
