<svg width="15" height="14" viewBox="0 0 15 14" fill="none" xmlns="http://www.w3.org/2000/svg">
<path fill-rule="evenodd" clip-rule="evenodd" d="M1.47917 7C1.47917 3.87039 4.17479 1.33333 7.5 1.33333C10.8252 1.33333 13.5208 3.87039 13.5208 7C13.5208 10.1296 10.8252 12.6667 7.5 12.6667C6.77155 12.6667 6.07332 12.5449 5.42703 12.3219C5.83416 11.2906 6.23315 10.2565 6.61579 9.217C7.02258 9.48987 7.54732 9.66667 8.20833 9.66667C9.57896 9.66667 11.0239 8.81647 11.3821 7.13073C11.8318 5.01432 10.0307 3 7.5 3C6.43552 3 5.38837 3.40247 4.60503 4.04162C3.82009 4.68207 3.25 5.60458 3.25 6.66667C3.25 7.18307 3.41571 7.75853 3.81064 8.13713C4.08376 8.3946 4.53978 8.39553 4.81337 8.13807C5.08472 7.88267 5.08989 7.4716 4.82887 7.21033C4.27223 6.55653 5.00562 5.47938 5.533 5.04907C6.08039 4.60244 6.80406 4.33333 7.5 4.33333C9.21927 4.33333 10.2515 5.65235 9.99291 6.86927C9.77835 7.87887 8.96271 8.33333 8.20833 8.33333C7.62899 8.33333 7.31697 8.10313 7.11743 7.80533C7.22637 7.48247 7.31966 7.1892 7.38575 6.95087C7.52203 6.45907 7.60434 5.8668 7.13443 5.49827C6.78515 5.22429 6.37283 5.28506 6.12073 5.40371C5.65221 5.62419 5.375 6.13993 5.375 6.66667C5.375 6.96093 5.42368 7.41687 5.59936 7.88767C5.14709 9.172 4.6566 10.4447 4.15613 11.7131C2.54199 10.6966 1.47917 8.96513 1.47917 7ZM7.5 0C3.39238 0 0.0625 3.13401 0.0625 7C0.0625 10.866 3.39238 14 7.5 14C11.6076 14 14.9375 10.866 14.9375 7C14.9375 3.13401 11.6076 0 7.5 0Z" fill="#CCCCCC"/>
</svg>
