<svg width="19" height="36" viewBox="0 0 19 36" fill="none" xmlns="http://www.w3.org/2000/svg">
<path fill-rule="evenodd" clip-rule="evenodd" d="M17.2206 0.487365C17.5549 0.857746 17.5682 1.61854 17.2529 2.34357L12.3678 13.5774L18.0993 16.0698C18.4414 16.2185 18.6237 16.6631 18.5773 17.2355C18.5311 17.8079 18.2632 18.4205 17.875 18.842L2.81379 35.1921C2.3239 35.7239 1.75156 35.8359 1.41725 35.4655C1.08294 35.0952 1.06974 34.3343 1.38497 33.6094L6.27005 22.3756L0.538517 19.8832C0.196469 19.7345 0.0141791 19.2898 0.0605071 18.7174C0.106835 18.145 0.374713 17.5323 0.762911 17.1109L15.8241 0.760721C16.314 0.229039 16.8863 0.116999 17.2206 0.487365ZM3.59739 17.3968L8.62105 19.5813C9.14864 19.8108 9.26387 20.7152 8.87843 21.6016L5.8769 28.5039L15.0405 18.5563L10.0168 16.3717C9.4892 16.1423 9.37396 15.2378 9.75942 14.3514L12.761 7.44891L3.59739 17.3968Z" fill="white"/>
</svg>
