<svg width="32" height="37" viewBox="0 0 32 37" fill="none" xmlns="http://www.w3.org/2000/svg">
<path d="M15.7046 4.83333C18.5093 4.83333 21.1991 5.80261 23.1823 7.52796C25.1655 9.25328 26.2796 11.5933 26.2796 14.0333C26.2796 17.8074 27.1512 20.6336 28.2816 22.7118C29.7256 25.3672 30.4477 26.6948 30.4075 26.998C30.3607 27.3521 30.301 27.4494 30.0037 27.656C29.7489 27.8333 28.4817 27.8333 25.947 27.8333H5.46201C2.92737 27.8333 1.66008 27.8333 1.40532 27.656C1.10814 27.4494 1.04843 27.3521 1.00159 26.998C0.961423 26.6948 1.68348 25.3672 3.12761 22.7118C4.2579 20.6336 5.12954 17.8074 5.12954 14.0333C5.12954 11.5933 6.24369 9.25328 8.22688 7.52796C10.2101 5.80261 12.8998 4.83333 15.7046 4.83333ZM15.7046 4.83333V1M10.5228 33.5833C11.9058 34.778 13.7225 35.5031 15.7124 35.5031C17.7021 35.5031 19.5188 34.778 20.902 33.5833" stroke="white" stroke-width="2" stroke-linecap="round" stroke-linejoin="round"/>
</svg>
