<svg width="23" height="21" viewBox="0 0 23 21" fill="none" xmlns="http://www.w3.org/2000/svg">
<path d="M10.4639 2.02504C10.7339 1.44074 10.869 1.14859 11.0571 1.05862C11.2204 0.980459 11.4122 0.980459 11.5756 1.05862C11.7636 1.14859 11.8987 1.44074 12.1688 2.02504L14.3202 6.67909C14.4001 6.85182 14.44 6.93819 14.5018 7.00433C14.5564 7.06285 14.6233 7.10966 14.6978 7.1417C14.7822 7.17793 14.8797 7.18785 15.0748 7.20769L20.3298 7.74253C20.9895 7.80967 21.3193 7.84324 21.4662 7.9879C21.5937 8.11355 21.653 8.28951 21.6264 8.46348C21.5958 8.66373 21.3494 8.87781 20.8566 9.3061L16.9312 12.7173C16.7856 12.8439 16.7126 12.9072 16.6666 12.9843C16.6257 13.0526 16.6002 13.1283 16.5917 13.2066C16.582 13.2951 16.6023 13.3876 16.643 13.5727L17.7394 18.5572C17.8771 19.183 17.9459 19.4959 17.8486 19.6752C17.764 19.8312 17.6089 19.9398 17.4291 19.9692C17.2221 20.0029 16.9348 19.8432 16.3601 19.5236L11.7827 16.9777C11.6128 16.8832 11.5279 16.8361 11.4376 16.8175C11.3576 16.8012 11.275 16.8012 11.1951 16.8175C11.1048 16.8361 11.0199 16.8832 10.85 16.9777L6.27263 19.5236C5.69795 19.8432 5.41061 20.0029 5.20363 19.9692C5.02384 19.9398 4.86862 19.8312 4.78411 19.6752C4.68682 19.4959 4.75564 19.183 4.8933 18.5572L5.98969 13.5727C6.03038 13.3876 6.05073 13.2951 6.04107 13.2066C6.03251 13.1283 6.007 13.0526 5.96617 12.9843C5.92002 12.9072 5.84718 12.8439 5.7015 12.7173L1.77611 9.3061C1.28329 8.87781 1.03688 8.66373 1.00625 8.46348C0.979646 8.28951 1.03892 8.11355 1.16649 7.9879C1.31335 7.84324 1.64322 7.80967 2.30297 7.74253L7.55798 7.20769C7.75302 7.18785 7.85053 7.17793 7.93486 7.1417C8.00947 7.10966 8.07627 7.06285 8.13094 7.00433C8.19271 6.93819 8.23264 6.85182 8.3125 6.67909L10.4639 2.02504Z" stroke="white" stroke-width="2" stroke-linecap="round" stroke-linejoin="round"/>
</svg>
